STARTFONT 2.1
COMMENT
COMMENT Converted from OpenType font "PourcentFont3-2.ttf" by "otf2bdf 3.0".
COMMENT
FONT -FreeType-PourcentFont-Medium-R-Normal--22-160-100-100-C-107-ISO10646-1
SIZE 16 100 100
FONTBOUNDINGBOX 13 21 0 -5
STARTPROPERTIES 19
FOUNDRY "FreeType"
FAMILY_NAME "PourcentFont"
WEIGHT_NAME "Medium"
SLANT "R"
SETWIDTH_NAME "Normal"
ADD_STYLE_NAME ""
PIXEL_SIZE 22
POINT_SIZE 160
RESOLUTION_X 100
RESOLUTION_Y 100
SPACING "C"
AVERAGE_WIDTH 107
CHARSET_REGISTRY "ISO10646"
CHARSET_ENCODING "1"
FONT_ASCENT 16
FONT_DESCENT 5
COPYRIGHT "-FreeType-PourcentFont-Medium-R-Normal--22-160-100-100-C-107-ISO10646-1"
_OTF_FONTFILE "PourcentFont3-2.ttf"
_OTF_PSNAME "PourcentFont"
ENDPROPERTIES
CHARS 14
STARTCHAR 0000
ENCODING 0
SWIDTH 0 0
DWIDTH 0 0
BBX 0 0 0 0
BITMAP
ENDCHAR
STARTCHAR 000D
ENCODING 13
SWIDTH 495 0
DWIDTH 11 0
BBX 0 0 0 0
BITMAP
ENDCHAR
STARTCHAR 0020
ENCODING 32
SWIDTH 495 0
DWIDTH 11 0
BBX 0 0 0 0
BITMAP
ENDCHAR
STARTCHAR 0025
ENCODING 37
SWIDTH 765 0
DWIDTH 17 0
BBX 13 14 0 -3
BITMAP
C018
C018
0000
0060
0060
0000
0300
0300
0000
1800
1800
0000
C018
C018
ENDCHAR
STARTCHAR 0030
ENCODING 48
SWIDTH 765 0
DWIDTH 17 0
BBX 13 21 0 -5
BITMAP
1B60
1B60
C018
C018
0000
C018
C018
0000
C018
C018
0000
C018
C018
0000
C018
C018
0000
C018
C018
1B60
1B60
ENDCHAR
STARTCHAR 0031
ENCODING 49
SWIDTH 765 0
DWIDTH 17 0
BBX 13 21 0 -5
BITMAP
0060
0060
0360
0360
0000
1860
1860
0000
C060
C060
0000
0060
0060
0000
0060
0060
0000
0060
0060
1B78
1B78
ENDCHAR
STARTCHAR 0032
ENCODING 50
SWIDTH 765 0
DWIDTH 17 0
BBX 13 21 0 -5
BITMAP
1B60
1B60
C018
C018
0000
C018
C018
0000
0060
0060
0000
0300
0300
0000
1800
1800
0000
C000
C000
DB78
DB78
ENDCHAR
STARTCHAR 0033
ENCODING 51
SWIDTH 765 0
DWIDTH 17 0
BBX 13 21 0 -5
BITMAP
1B60
1B60
C018
C018
0000
0018
0018
0000
0360
0360
0000
0018
0018
0000
0018
0018
0000
C018
C018
1B60
1B60
ENDCHAR
STARTCHAR 0034
ENCODING 52
SWIDTH 765 0
DWIDTH 17 0
BBX 13 21 0 -5
BITMAP
0018
0018
0078
0078
0000
0318
0318
0000
1818
1818
0000
DB78
DB78
0000
0018
0018
0000
0018
0018
0018
0018
ENDCHAR
STARTCHAR 0035
ENCODING 53
SWIDTH 765 0
DWIDTH 17 0
BBX 13 21 0 -5
BITMAP
DB78
DB78
C000
C000
0000
C000
C000
0000
DB60
DB60
0000
0018
0018
0000
0018
0018
0000
0018
0018
DB60
DB60
ENDCHAR
STARTCHAR 0036
ENCODING 54
SWIDTH 765 0
DWIDTH 17 0
BBX 13 21 0 -5
BITMAP
1B60
1B60
C018
C018
0000
C000
C000
0000
DB60
DB60
0000
C018
C018
0000
C018
C018
0000
C018
C018
1B60
1B60
ENDCHAR
STARTCHAR 0037
ENCODING 55
SWIDTH 765 0
DWIDTH 17 0
BBX 13 21 0 -5
BITMAP
DB78
DB78
0018
0018
0000
0018
0018
0000
0018
0018
0000
0018
0018
0000
0018
0018
0000
0018
0018
0018
0018
ENDCHAR
STARTCHAR 0038
ENCODING 56
SWIDTH 765 0
DWIDTH 17 0
BBX 13 21 0 -5
BITMAP
1B60
1B60
C018
C018
0000
C018
C018
0000
1B60
1B60
0000
C018
C018
0000
C018
C018
0000
C018
C018
1B60
1B60
ENDCHAR
STARTCHAR 0039
ENCODING 57
SWIDTH 765 0
DWIDTH 17 0
BBX 13 21 0 -5
BITMAP
1B60
1B60
C018
C018
0000
C018
C018
0000
C018
C018
0000
1B78
1B78
0000
0018
0018
0000
C018
C018
1B60
1B60
ENDCHAR
ENDFONT
