STARTFONT 2.1
COMMENT
COMMENT Converted from OpenType font "PourcentFont3-2.ttf" by "otf2bdf 3.0".
COMMENT
FONT -FreeType-PourcentFont-Medium-R-Normal--21-200-75-75-P-107-ISO10646-1
SIZE 20 75 75
FONTBOUNDINGBOX 13 21 0 -5
STARTPROPERTIES 19
FOUNDRY "FreeType"
FAMILY_NAME "PourcentFont"
WEIGHT_NAME "Medium"
SLANT "R"
SETWIDTH_NAME "Normal"
ADD_STYLE_NAME ""
PIXEL_SIZE 21
POINT_SIZE 200
RESOLUTION_X 75
RESOLUTION_Y 75
SPACING "P"
AVERAGE_WIDTH 107
CHARSET_REGISTRY "ISO10646"
CHARSET_ENCODING "1"
FONT_ASCENT 15
FONT_DESCENT 5
COPYRIGHT "-FreeType-PourcentFont-Medium-R-Normal--21-200-75-75-P-107-ISO10646-1"
_OTF_FONTFILE "PourcentFont3-2.ttf"
_OTF_PSNAME "PourcentFont"
ENDPROPERTIES
CHARS 14
STARTCHAR 0000
ENCODING 0
SWIDTH 0 0
DWIDTH 0 0
BBX 0 0 0 0
BITMAP
ENDCHAR
STARTCHAR 000D
ENCODING 13
SWIDTH 528 0
DWIDTH 11 0
BBX 0 0 0 0
BITMAP
ENDCHAR
STARTCHAR 0020
ENCODING 32
SWIDTH 528 0
DWIDTH 11 0
BBX 0 0 0 0
BITMAP
ENDCHAR
STARTCHAR 0025
ENCODING 37
SWIDTH 768 0
DWIDTH 16 0
BBX 13 12 0 -2
BITMAP
C018
C018
00C0
00C0
0000
0600
0600
0000
1800
1800
C018
C018
ENDCHAR
STARTCHAR 0030
ENCODING 48
SWIDTH 768 0
DWIDTH 16 0
BBX 13 21 0 -5
BITMAP
1EC0
1EC0
0000
C018
C018
0000
C018
C018
C018
C018
0000
C018
C018
0000
C018
C018
C018
C018
0000
1EC0
1EC0
ENDCHAR
STARTCHAR 0031
ENCODING 49
SWIDTH 768 0
DWIDTH 16 0
BBX 13 21 0 -5
BITMAP
00C0
00C0
0000
06C0
06C0
0000
18C0
18C0
C0C0
C0C0
0000
00C0
00C0
0000
00C0
00C0
00C0
00C0
0000
1ED8
1ED8
ENDCHAR
STARTCHAR 0032
ENCODING 50
SWIDTH 768 0
DWIDTH 16 0
BBX 13 21 0 -5
BITMAP
1EC0
1EC0
0000
C018
C018
0000
C018
C018
00C0
00C0
0000
0600
0600
0000
1800
1800
C000
C000
0000
DED8
DED8
ENDCHAR
STARTCHAR 0033
ENCODING 51
SWIDTH 768 0
DWIDTH 16 0
BBX 13 21 0 -5
BITMAP
1EC0
1EC0
0000
C018
C018
0000
0018
0018
06C0
06C0
0000
0018
0018
0000
0018
0018
C018
C018
0000
1EC0
1EC0
ENDCHAR
STARTCHAR 0034
ENCODING 52
SWIDTH 768 0
DWIDTH 16 0
BBX 13 21 0 -5
BITMAP
0018
0018
0000
00D8
00D8
0000
0618
0618
1818
1818
0000
DED8
DED8
0000
0018
0018
0018
0018
0000
0018
0018
ENDCHAR
STARTCHAR 0035
ENCODING 53
SWIDTH 768 0
DWIDTH 16 0
BBX 13 21 0 -5
BITMAP
DED8
DED8
0000
C000
C000
0000
C000
C000
DEC0
DEC0
0000
0018
0018
0000
0018
0018
0018
0018
0000
DEC0
DEC0
ENDCHAR
STARTCHAR 0036
ENCODING 54
SWIDTH 768 0
DWIDTH 16 0
BBX 13 21 0 -5
BITMAP
1EC0
1EC0
0000
C018
C018
0000
C000
C000
DEC0
DEC0
0000
C018
C018
0000
C018
C018
C018
C018
0000
1EC0
1EC0
ENDCHAR
STARTCHAR 0037
ENCODING 55
SWIDTH 768 0
DWIDTH 16 0
BBX 13 21 0 -5
BITMAP
DED8
DED8
0000
0018
0018
0000
0018
0018
0018
0018
0000
0018
0018
0000
0018
0018
0018
0018
0000
0018
0018
ENDCHAR
STARTCHAR 0038
ENCODING 56
SWIDTH 768 0
DWIDTH 16 0
BBX 13 21 0 -5
BITMAP
1EC0
1EC0
0000
C018
C018
0000
C018
C018
1EC0
1EC0
0000
C018
C018
0000
C018
C018
C018
C018
0000
1EC0
1EC0
ENDCHAR
STARTCHAR 0039
ENCODING 57
SWIDTH 768 0
DWIDTH 16 0
BBX 13 21 0 -5
BITMAP
1EC0
1EC0
0000
C018
C018
0000
C018
C018
C018
C018
0000
1ED8
1ED8
0000
0018
0018
C018
C018
0000
1EC0
1EC0
ENDCHAR
ENDFONT
