STARTFONT 2.1
COMMENT
COMMENT Converted from OpenType font "PourcentFont3-2.ttf" by "otf2bdf 3.0".
COMMENT
FONT -FreeType-PourcentFont-Medium-R-Normal--1-40-10-10-P-12-ISO10646-1
SIZE 4 10 10
FONTBOUNDINGBOX 1 1 0 0
STARTPROPERTIES 19
FOUNDRY "FreeType"
FAMILY_NAME "PourcentFont"
WEIGHT_NAME "Medium"
SLANT "R"
SETWIDTH_NAME "Normal"
ADD_STYLE_NAME ""
PIXEL_SIZE 1
POINT_SIZE 40
RESOLUTION_X 10
RESOLUTION_Y 10
SPACING "P"
AVERAGE_WIDTH 12
CHARSET_REGISTRY "ISO10646"
CHARSET_ENCODING "1"
FONT_ASCENT 0
FONT_DESCENT 0
COPYRIGHT "-FreeType-PourcentFont-Medium-R-Normal--1-40-10-10-P-12-ISO10646-1"
_OTF_FONTFILE "PourcentFont3-2.ttf"
_OTF_PSNAME "PourcentFont"
ENDPROPERTIES
CHARS 14
STARTCHAR 0000
ENCODING 0
SWIDTH 0 0
DWIDTH 0 0
BBX 0 0 0 0
BITMAP
ENDCHAR
STARTCHAR 000D
ENCODING 13
SWIDTH 1800 0
DWIDTH 1 0
BBX 0 0 0 0
BITMAP
ENDCHAR
STARTCHAR 0020
ENCODING 32
SWIDTH 1800 0
DWIDTH 1 0
BBX 0 0 0 0
BITMAP
ENDCHAR
STARTCHAR 0025
ENCODING 37
SWIDTH 1800 0
DWIDTH 1 0
BBX 1 1 0 0
BITMAP
80
ENDCHAR
STARTCHAR 0030
ENCODING 48
SWIDTH 1800 0
DWIDTH 1 0
BBX 1 1 0 0
BITMAP
80
ENDCHAR
STARTCHAR 0031
ENCODING 49
SWIDTH 1800 0
DWIDTH 1 0
BBX 1 1 0 0
BITMAP
80
ENDCHAR
STARTCHAR 0032
ENCODING 50
SWIDTH 1800 0
DWIDTH 1 0
BBX 1 1 0 0
BITMAP
80
ENDCHAR
STARTCHAR 0033
ENCODING 51
SWIDTH 1800 0
DWIDTH 1 0
BBX 1 1 0 0
BITMAP
80
ENDCHAR
STARTCHAR 0034
ENCODING 52
SWIDTH 1800 0
DWIDTH 1 0
BBX 1 1 0 0
BITMAP
80
ENDCHAR
STARTCHAR 0035
ENCODING 53
SWIDTH 1800 0
DWIDTH 1 0
BBX 1 1 0 0
BITMAP
80
ENDCHAR
STARTCHAR 0036
ENCODING 54
SWIDTH 1800 0
DWIDTH 1 0
BBX 1 1 0 0
BITMAP
80
ENDCHAR
STARTCHAR 0037
ENCODING 55
SWIDTH 1800 0
DWIDTH 1 0
BBX 1 1 0 0
BITMAP
80
ENDCHAR
STARTCHAR 0038
ENCODING 56
SWIDTH 1800 0
DWIDTH 1 0
BBX 1 1 0 0
BITMAP
80
ENDCHAR
STARTCHAR 0039
ENCODING 57
SWIDTH 1800 0
DWIDTH 1 0
BBX 1 1 0 0
BITMAP
80
ENDCHAR
ENDFONT
